# xmcd
#
# Track frame offsets:
#	150
#	8140
#	12779
#	19601
#	26678
#	34331
#	41198
#	49150
#	56367
#	63481
#	69698
#	76240
#	86959
#	88723
#	104002
#	110692
#	117787
#	124339
#	131104
#	138863
#
# Disc length: 1956 seconds
#
# Revision: 0
# Processed by: cddbd v1.5.2PL0 Copyright (c) Steve Scherf et al.
# Submitted via: EasyCDDAExtractor 11.1.0.1
#
DISCID=1907a214
DTITLE=Various Artist - John Deere Crazy About Silly Barnyard Songs
DYEAR=2009
DGENRE=Country
TTITLE0=The Barnyard Song
TTITLE1=Old MacDonald's Farm Is Swell
TTITLE2=Fuzzy Wuzzy
TTITLE3=The Derby Ram
TTITLE4=Mary Had A Little Lamb
TTITLE5=O Where Has My Little Dog Gone
TTITLE6=B-I-N-G-O (Was His Name-O)
TTITLE7=To Market To Market
TTITLE8=Three Little Kittens
TTITLE9=The Animal Fair
TTITLE10=Where Is Your Goose?
TTITLE11=Every Otter Ought To Know
TTITLE12=Be Kind To Your Web-Footed Friends
TTITLE13=The Ants Go Marching
TTITLE14=Frog Went A-Coutrin'
TTITLE15=Three Little Fishes
TTITLE16=Five Little Speckled Frogs
TTITLE17=The Crawdad Song
TTITLE18=This Little Pig
TTITLE19=Five Little Chickadees
EXTD=
EXTT0=
EXTT1=
EXTT2=
EXTT3=
EXTT4=
EXTT5=
EXTT6=
EXTT7=
EXTT8=
EXTT9=
EXTT10=
EXTT11=
EXTT12=
EXTT13=
EXTT14=
EXTT15=
EXTT16=
EXTT17=
EXTT18=
EXTT19=
PLAYORDER=
